<?xml version="1.0" standalone="no"?>
<!DOCTYPE svg PUBLIC "-//W3C//DTD SVG 20010904//EN"
 "http://www.w3.org/TR/2001/REC-SVG-20010904/DTD/svg10.dtd">
<svg version="1.0" xmlns="http://www.w3.org/2000/svg"
 width="1063.000000pt" height="1062.000000pt" viewBox="0 0 1063.000000 1062.000000"
 preserveAspectRatio="xMidYMid meet">

<g transform="translate(0.000000,1062.000000) scale(0.100000,-0.100000)"
fill="#000000" stroke="none">
<path d="M4565 10474 c-147 -31 -194 -51 -231 -100 -43 -56 -40 -119 9 -198
54 -86 49 -110 -30 -150 -45 -23 -105 -20 -198 9 -124 39 -157 22 -200 -104
-52 -153 -42 -222 39 -261 50 -24 73 -25 146 -5 74 20 154 19 174 -1 25 -24
19 -73 -24 -235 -75 -277 -215 -654 -312 -839 -91 -174 -145 -255 -208 -314
-63 -59 -103 -76 -180 -76 -51 0 -65 4 -85 24 -35 35 -59 127 -52 201 7 74 81
261 208 527 186 390 209 496 134 623 -72 123 -260 226 -410 226 -60 0 -78 -5
-168 -50 -63 -30 -152 -88 -232 -148 -71 -54 -144 -109 -162 -121 l-32 -23 2
86 c2 83 1 87 -26 111 -47 40 -64 33 -188 -81 -128 -118 -160 -156 -197 -235
-23 -50 -27 -71 -33 -220 l-7 -165 -71 -215 c-52 -154 -90 -250 -138 -340
-143 -273 -218 -360 -310 -360 -35 0 -122 40 -146 68 -43 47 -69 252 -48 364
7 35 28 97 46 138 41 91 65 179 65 238 0 75 -59 111 -135 82 -35 -13 -211
-148 -262 -201 -54 -55 -90 -123 -152 -287 -81 -214 -105 -257 -201 -353 -77
-78 -97 -92 -212 -148 -158 -78 -155 -73 -140 -249 20 -240 88 -344 236 -359
79 -8 131 11 186 67 60 62 123 156 144 215 9 25 23 66 32 91 9 25 20 42 24 37
4 -4 20 -66 35 -138 32 -155 69 -240 128 -290 108 -94 270 -127 386 -79 52 22
145 108 232 217 133 165 169 225 215 364 25 76 44 121 49 113 4 -6 4 -74 0
-150 -4 -91 -3 -145 4 -158 27 -51 144 -54 250 -7 77 35 157 116 167 170 9 51
-1 142 -27 250 -43 170 -28 446 33 635 41 128 182 370 243 418 62 49 159 49
227 1 86 -62 81 -162 -16 -336 -116 -208 -220 -496 -233 -647 -11 -135 45
-273 154 -382 125 -125 239 -151 413 -95 134 43 210 90 321 201 136 135 220
265 340 525 l23 50 7 -170 c7 -184 18 -236 86 -415 32 -87 42 -101 112 -171
82 -82 145 -120 238 -144 204 -53 453 42 663 254 66 67 94 104 124 166 l39 79
23 -29 c32 -40 60 -102 68 -150 6 -36 -4 -212 -21 -369 l-6 -59 -59 7 c-70 7
-112 -8 -169 -58 -48 -44 -89 -55 -162 -45 -88 11 -122 -2 -194 -78 -81 -86
-108 -103 -165 -103 -28 0 -48 -5 -51 -12 -15 -44 76 -82 181 -76 59 3 87 13
232 82 250 120 290 117 435 -31 l75 -77 83 -6 c91 -6 108 -13 153 -62 53 -57
50 -94 -16 -198 -87 -136 -52 -241 120 -354 110 -73 150 -134 150 -235 1 -97
26 -205 65 -282 32 -62 36 -79 32 -123 -4 -44 -71 -364 -121 -579 -24 -104
-30 -196 -17 -288 7 -46 14 -92 17 -101 4 -15 -4 -14 -68 8 -53 18 -111 28
-208 36 -156 12 -186 20 -205 59 -23 43 -18 77 21 157 l36 73 -17 91 c-9 50
-25 119 -36 152 l-18 61 32 24 c149 112 347 386 347 480 0 110 -117 213 -257
227 -107 11 -135 -18 -168 -181 -21 -107 -48 -159 -115 -226 -60 -61 -124 -99
-164 -99 -33 0 -75 69 -82 136 -5 43 -1 59 36 131 31 62 55 94 97 130 122 105
149 132 236 238 113 139 157 226 157 310 0 140 -51 218 -183 281 -76 36 -79
36 -134 25 -127 -25 -226 -96 -280 -198 -46 -87 -139 -338 -157 -423 -8 -41
-20 -118 -25 -170 -15 -137 -63 -232 -167 -329 -159 -148 -297 -197 -362 -128
-33 35 -36 68 -12 162 21 83 123 353 189 498 49 108 40 187 -29 254 -19 18
-53 40 -77 49 -39 15 -52 16 -116 4 -40 -7 -83 -17 -96 -22 -13 -5 -26 -7 -28
-4 -2 2 23 57 55 122 72 143 209 483 218 540 8 55 -15 108 -58 131 -28 15 -58
18 -210 18 -174 0 -177 0 -203 -25 -61 -57 -66 -93 -35 -270 35 -202 28 -258
-65 -505 -134 -357 -195 -492 -296 -655 -175 -285 -207 -328 -271 -376 -101
-74 -166 -73 -201 4 -19 41 -22 63 -21 172 2 178 49 574 72 614 21 36 28 36
99 5 49 -21 53 -21 77 -6 64 42 147 224 149 327 1 49 -19 99 -43 110 -71 32
-95 47 -98 61 -2 9 17 40 41 70 54 66 67 90 67 123 0 40 -39 74 -135 115 -166
71 -250 74 -314 11 -36 -36 -53 -106 -39 -156 5 -19 8 -49 6 -67 l-3 -32 -82
-3 c-76 -3 -85 -5 -112 -32 -37 -38 -93 -170 -99 -235 -5 -64 19 -97 88 -120
28 -9 55 -25 60 -35 21 -39 7 -127 -97 -578 l-107 -467 0 -165 c-1 -161 0
-166 27 -222 30 -61 65 -96 131 -131 32 -17 58 -22 122 -22 77 0 86 2 178 48
126 63 269 171 385 293 89 93 93 96 88 63 -15 -80 -19 -175 -8 -202 13 -33 73
-63 146 -72 41 -5 58 -2 94 17 25 13 54 35 64 50 29 39 38 172 31 433 -5 177
-3 237 10 309 19 109 50 203 79 248 49 72 135 100 178 57 18 -18 21 -30 17
-88 -3 -54 -16 -95 -72 -226 -89 -209 -96 -233 -101 -342 -5 -87 -3 -95 23
-140 57 -97 166 -150 292 -141 53 4 91 16 181 57 95 43 133 68 234 151 65 55
122 100 125 100 4 0 16 -24 29 -54 33 -80 100 -139 187 -165 139 -40 135 -40
304 24 52 20 102 39 111 41 12 4 19 -9 32 -55 34 -120 21 -163 -73 -248 -32
-29 -68 -74 -80 -99 -22 -45 -22 -45 -64 -38 -119 19 -276 88 -293 127 -7 16
-6 37 4 71 19 65 10 111 -32 153 -37 37 -93 48 -80 16 35 -87 28 -123 -38
-186 l-50 -49 6 -58 5 -57 -82 -12 c-44 -6 -120 -21 -167 -33 -76 -19 -89 -20
-118 -8 -43 17 -71 64 -71 116 0 59 -21 77 -129 117 -115 43 -142 39 -82 -12
l42 -36 -3 -74 -3 -75 -95 -33 c-80 -28 -109 -33 -185 -33 -123 0 -158 17
-165 80 l-5 45 -46 3 c-38 2 -52 -2 -78 -23 -35 -30 -40 -64 -16 -121 17 -42
25 -38 -125 -59 -125 -18 -150 -31 -150 -76 0 -62 57 -74 190 -39 114 30 141
27 194 -20 65 -55 97 -59 203 -23 49 17 117 43 152 58 92 39 152 33 263 -25
77 -42 88 -45 158 -44 56 0 122 12 259 47 272 70 336 63 480 -52 140 -112 249
-147 421 -137 58 4 132 4 164 0 51 -6 66 -13 109 -52 61 -54 157 -117 247
-162 135 -68 165 -106 260 -332 56 -133 89 -197 144 -280 l18 -28 -163 0
c-260 -1 -401 -27 -564 -104 -72 -34 -101 -54 -142 -100 -58 -66 -105 -154
-128 -241 -20 -77 -20 -244 1 -341 43 -211 206 -550 364 -759 81 -108 282
-305 398 -392 258 -194 496 -214 734 -62 89 57 132 149 184 396 10 46 20 83
23 83 10 0 51 -68 70 -118 48 -120 54 -330 12 -410 -49 -95 -198 -225 -338
-294 -82 -41 -91 -43 -172 -43 -47 0 -97 2 -111 3 -52 5 -512 -17 -665 -33
-283 -28 -406 -66 -660 -203 -114 -61 -157 -91 -229 -159 -65 -61 -111 -94
-172 -124 -47 -23 -96 -56 -111 -73 l-26 -31 32 -3 c20 -2 45 5 68 19 26 16
59 24 124 30 79 6 93 10 136 42 70 50 144 85 220 103 36 8 79 22 95 30 47 24
268 67 335 65 66 -2 156 13 326 56 105 27 109 27 139 10 17 -10 32 -16 33 -15
46 70 42 67 108 65 55 -2 67 1 109 30 31 22 58 33 82 33 19 0 59 10 88 21 29
12 75 26 102 30 47 8 207 66 253 92 106 60 245 153 274 184 21 21 64 80 98
131 56 86 70 119 85 193 4 19 21 34 65 58 80 42 103 71 88 111 -9 24 -8 33 4
45 18 18 66 7 151 -36 90 -45 110 -40 225 64 56 50 73 59 176 91 104 33 119
40 189 101 82 70 87 85 37 105 -33 14 -37 31 -13 51 12 10 48 14 118 15 70 0
125 7 180 22 44 12 103 22 132 22 91 0 150 18 180 53 35 42 36 43 142 66 50
11 122 33 159 49 37 16 94 32 125 36 78 8 153 37 279 108 58 32 130 68 160 79
30 11 61 27 69 35 9 7 56 33 106 57 95 47 185 111 297 211 62 55 67 61 51 73
-10 7 -24 13 -32 13 -8 0 -51 -35 -96 -78 -138 -131 -209 -171 -483 -266 -224
-77 -262 -85 -483 -97 -338 -17 -483 -47 -648 -135 -94 -49 -123 -71 -267
-195 -236 -203 -334 -262 -451 -267 -149 -8 -251 48 -391 215 -120 143 -192
245 -225 318 -56 125 -60 338 -13 639 14 88 25 161 25 162 0 2 17 -4 38 -13
22 -10 78 -18 140 -21 125 -6 168 8 250 80 79 70 177 134 315 207 109 58 123
63 197 68 102 7 157 -8 216 -60 66 -58 106 -143 112 -238 4 -62 1 -82 -16
-115 -41 -80 -173 -174 -245 -174 -43 0 -106 41 -182 119 -75 77 -104 88 -187
66 -114 -29 -213 -106 -258 -202 -19 -40 -22 -60 -18 -123 10 -159 90 -243
276 -291 83 -21 373 -43 429 -33 19 4 48 21 66 39 18 18 50 38 72 45 58 19
119 51 217 118 123 82 185 172 287 419 56 135 62 182 40 312 -10 56 -17 71
-49 101 -22 21 -47 58 -58 88 -30 77 -89 150 -184 226 -125 101 -173 121 -283
121 -49 0 -112 -6 -140 -14 -117 -33 -280 -104 -370 -161 -198 -124 -259 -144
-415 -138 -96 4 -112 7 -161 35 -70 39 -109 99 -116 180 -6 72 7 107 49 133
40 24 120 27 142 5 14 -15 36 -75 36 -102 0 -23 61 -82 95 -93 44 -14 85 -3
175 50 98 57 142 108 147 167 5 47 3 52 -55 129 -136 180 -195 207 -444 202
-175 -3 -198 -11 -303 -95 -77 -62 -115 -114 -153 -205 -41 -97 -53 -182 -44
-290 l8 -86 -132 90 c-134 91 -139 97 -169 181 -18 50 -72 112 -109 123 -11 4
-39 19 -62 35 -59 40 -97 119 -128 267 -14 67 -42 161 -61 209 -53 131 -50
144 45 213 41 30 86 77 133 140 139 187 213 238 375 264 51 8 100 20 108 27 9
7 27 36 41 63 14 28 39 70 54 93 51 73 77 226 44 253 -18 15 -28 -7 -44 -96
-17 -87 -35 -101 -155 -114 -54 -6 -100 -9 -103 -6 -9 9 45 81 125 170 41 45
94 112 118 149 l44 68 5 140 c6 165 15 209 57 292 45 91 49 169 12 267 -19 53
-28 97 -30 149 -1 40 -7 78 -13 84 -26 26 -46 -11 -91 -164 -25 -85 -49 -160
-54 -167 -12 -20 -24 -5 -40 51 -15 50 -41 87 -62 87 -14 0 2 -177 21 -230 67
-186 47 -266 -86 -336 -40 -21 -87 -56 -109 -81 -21 -24 -41 -40 -44 -34 -4 5
1 42 10 83 12 54 13 80 5 100 -9 25 -12 26 -41 17 -37 -13 -73 -72 -90 -148
-16 -67 -8 -164 21 -251 41 -128 12 -211 -116 -327 -110 -99 -111 -99 -118 5
-7 109 -26 169 -73 241 -37 54 -38 59 -43 168 -5 99 -9 114 -30 136 -15 17
-28 49 -36 95 -8 38 -36 130 -64 203 -69 186 -70 217 -10 308 l42 61 -9 133
c-11 147 -4 215 24 254 10 14 64 54 118 88 63 40 106 74 119 95 25 42 74 88
145 137 53 37 74 66 101 141 12 34 52 62 88 62 11 0 69 25 128 55 60 30 147
72 195 94 177 80 280 226 234 334 -12 29 -21 37 -40 37 -26 0 -29 -6 -27 -50
1 -14 -12 -46 -28 -71 -34 -51 -93 -88 -185 -114 -69 -20 -83 -13 -88 48 -3
37 0 40 92 116 95 77 209 206 270 307 73 120 146 388 157 573 5 90 4 98 -19
131 -22 33 -23 38 -10 75 18 52 10 105 -26 185 -17 36 -42 98 -57 138 -49 131
-131 235 -285 358 -58 46 -139 102 -180 123 -176 91 -447 151 -598 132 -106
-13 -299 -92 -412 -169 -97 -65 -251 -209 -314 -292 -53 -71 -126 -213 -155
-300 -54 -168 -63 -230 -70 -540 -8 -295 -8 -295 -39 -390 -17 -52 -38 -105
-47 -117 l-15 -21 -99 44 -99 45 -69 -11 c-117 -19 -255 -98 -269 -156 -8 -30
-13 -30 -54 -1 -26 17 -45 48 -86 142 -29 66 -61 147 -70 180 -22 81 -30 332
-14 466 36 311 129 586 206 605 13 3 64 -2 112 -12 107 -21 139 -13 179 47 35
54 40 111 14 180 -41 109 -93 134 -248 117 -99 -10 -107 -10 -120 8 -7 10 -13
23 -13 29 0 6 34 53 76 105 115 143 130 185 96 262 -22 51 -58 81 -117 97 -55
15 -83 13 -220 -15z m2281 -670 c22 -9 52 -14 71 -11 31 5 32 4 23 -19 -8 -19
-6 -26 5 -30 24 -10 83 16 109 47 14 16 27 29 30 29 19 0 120 -83 154 -126 22
-28 62 -70 90 -95 60 -53 86 -96 101 -168 6 -30 20 -68 30 -85 49 -81 59 -509
13 -586 -11 -19 -26 -64 -32 -100 -12 -68 -43 -131 -80 -165 -12 -11 -29 -33
-37 -48 -10 -21 -19 -27 -31 -22 -43 18 -48 16 -82 -37 -25 -39 -35 -48 -38
-35 -2 10 1 32 7 49 26 73 -1 130 -68 148 -34 9 -40 15 -46 47 -6 36 3 52 32
53 21 0 27 86 9 131 -26 65 0 80 49 29 21 -22 38 -30 63 -30 19 0 47 -9 63
-21 16 -11 36 -18 44 -15 35 13 33 177 -4 207 -35 29 -113 41 -189 29 -114
-17 -112 -16 -112 -55 0 -29 -4 -36 -25 -41 -14 -3 -38 -2 -53 4 -15 6 -53 14
-85 17 -55 6 -60 9 -73 41 -8 18 -27 40 -43 48 -31 16 -41 34 -41 72 0 16 -8
27 -22 33 -13 5 -34 21 -47 35 -14 14 -35 26 -47 26 -20 0 -23 -7 -29 -55 -6
-43 -4 -61 10 -81 19 -29 87 -63 127 -64 20 0 41 -16 85 -65 63 -71 82 -82
112 -66 21 12 51 5 51 -11 0 -5 -11 -26 -25 -46 -27 -40 -20 -61 14 -43 20 11
21 10 21 -49 0 -76 19 -114 70 -140 51 -26 70 -55 70 -109 0 -25 5 -59 12 -77
14 -40 -1 -76 -39 -93 -35 -16 -37 -14 -19 14 16 24 22 75 10 75 -4 0 -24 -20
-46 -45 -22 -25 -53 -52 -70 -61 l-29 -15 -97 102 c-53 56 -103 113 -111 128
-9 16 -13 48 -11 86 12 223 0 289 -63 361 -33 38 -45 45 -71 42 -45 -4 -46
-37 -3 -101 62 -94 70 -117 71 -192 1 -65 -2 -74 -36 -122 -20 -29 -38 -58
-40 -65 -4 -10 -12 -10 -38 3 -30 14 -34 20 -34 55 -1 30 -5 39 -21 42 -11 2
-26 9 -32 14 -15 12 -18 52 -3 43 6 -4 10 10 10 36 0 29 9 56 29 88 21 32 30
62 33 99 3 52 3 53 -37 75 -33 19 -40 28 -38 52 1 15 -5 40 -14 55 -13 22 -14
44 -8 122 7 93 7 96 33 101 15 3 55 31 90 62 35 32 64 56 65 54 1 -2 9 -17 17
-33 30 -58 150 -89 242 -63 24 6 28 4 34 -18 6 -24 24 -36 24 -16 0 5 19 23
42 40 47 35 110 42 144 16 10 -8 24 -15 30 -15 15 0 54 73 54 102 0 21 -110
168 -187 250 l-26 27 -29 -24 c-23 -20 -33 -23 -49 -15 -17 10 -19 7 -19 -24
0 -24 -10 -46 -35 -76 -50 -60 -73 -76 -135 -92 -30 -8 -62 -18 -71 -22 -14
-6 -21 6 -38 63 -15 49 -26 71 -38 71 -12 0 -14 7 -9 31 3 17 6 45 6 61 0 19
10 38 28 55 26 24 26 26 8 37 -41 24 -69 53 -62 64 11 18 41 14 61 -8 19 -21
50 -27 59 -11 3 4 38 11 78 13 52 4 75 10 83 22 5 9 10 16 11 16 1 0 19 -7 40
-16z m-221 -1305 c-13 -21 6 -99 32 -130 15 -17 49 -48 77 -68 32 -24 62 -58
79 -90 l28 -51 -26 -10 c-45 -17 -129 -11 -221 15 -88 26 -131 48 -145 76 -4
7 -16 51 -27 97 l-19 83 21 -7 c55 -16 71 -36 107 -132 13 -37 39 -58 88 -72
38 -11 53 10 28 38 -23 26 -44 73 -51 115 -8 43 10 147 25 147 6 0 7 -5 4 -11z
m-908 -233 c133 -156 331 -275 538 -322 94 -21 277 -23 398 -5 43 7 82 10 85
6 13 -13 -129 -136 -306 -267 -200 -148 -313 -256 -357 -340 -17 -32 -33 -58
-37 -58 -8 0 -180 99 -192 111 -6 5 -18 9 -28 9 -40 0 -70 25 -100 84 l-30 60
16 70 c9 39 17 121 19 181 2 103 0 114 -27 169 -16 32 -55 98 -87 147 -33 48
-59 97 -59 108 0 12 19 50 43 86 l42 64 19 -25 c11 -15 39 -49 63 -78z m-437
-1820 c0 -39 -53 -147 -110 -226 -45 -62 -48 -55 -20 49 43 152 130 272 130
177z m1074 -3217 c50 -22 102 -51 116 -64 14 -12 58 -39 98 -60 78 -41 250
-194 278 -247 9 -17 56 -148 105 -291 79 -233 89 -270 89 -332 -1 -96 -32
-173 -80 -197 -48 -25 -160 -24 -242 2 -115 35 -314 169 -430 287 -107 110
-218 248 -254 316 -78 149 -113 400 -68 497 12 25 33 55 46 68 39 36 116 61
187 62 53 0 78 -6 155 -41z"/>
<path d="M1635 9558 c-64 -24 -162 -84 -207 -129 -53 -53 -91 -123 -113 -206
-18 -67 -31 -230 -21 -266 l6 -26 72 25 c100 34 198 94 282 174 88 84 108 133
114 288 5 125 -7 152 -66 151 -20 0 -50 -5 -67 -11z"/>
<path d="M820 4680 c-39 -13 -65 -31 -92 -62 -131 -151 -199 -191 -393 -234
-66 -14 -133 -33 -150 -41 -45 -23 -93 -72 -105 -107 -24 -76 -61 -277 -61
-334 0 -79 25 -136 61 -140 31 -3 143 67 243 152 37 31 67 51 67 45 0 -7 -11
-45 -25 -84 -31 -90 -55 -228 -55 -314 0 -36 9 -127 19 -201 11 -74 22 -166
26 -205 15 -153 82 -342 170 -481 49 -76 153 -184 234 -242 52 -37 73 -46 118
-50 76 -6 132 18 186 79 l43 50 21 -106 c16 -82 34 -132 83 -232 33 -71 75
-149 92 -176 45 -70 211 -213 276 -237 74 -28 190 -27 249 1 58 28 125 107
173 204 80 164 95 267 105 745 6 329 11 383 35 412 16 21 19 21 93 8 70 -12
78 -11 108 6 38 23 94 101 109 152 16 57 12 142 -9 187 -41 91 -290 357 -346
371 -69 17 -179 -66 -236 -178 -59 -118 -69 -204 -49 -450 16 -195 -17 -331
-127 -528 -54 -96 -66 -102 -132 -68 -62 32 -78 58 -102 168 -61 272 10 589
173 777 43 50 55 99 39 153 -19 63 -47 87 -179 152 -158 78 -196 82 -246 27
-46 -50 -75 -134 -86 -249 -13 -137 -50 -229 -152 -382 -64 -96 -88 -111 -141
-87 -42 19 -57 61 -73 206 -20 172 -14 338 16 443 44 155 177 364 287 453 111
90 154 139 160 184 4 34 1 45 -23 71 -33 35 -210 135 -269 151 -54 15 -71 14
-135 -9z"/>
<path d="M4333 3531 c-67 -31 -129 -95 -154 -159 -16 -43 -22 -79 -22 -148 0
-153 30 -190 200 -249 225 -80 290 -124 429 -296 206 -254 286 -403 300 -558
16 -171 -69 -335 -214 -414 -141 -77 -312 -66 -517 33 -130 63 -270 169 -303
230 -25 48 -26 72 -3 220 14 85 14 281 1 353 -6 31 -29 105 -50 163 -22 59
-40 119 -40 134 0 15 16 51 36 80 47 69 52 111 24 200 -28 87 -57 120 -103
120 -37 0 -65 -21 -124 -94 l-32 -40 -118 115 c-182 177 -303 253 -455 285
-107 22 -179 1 -257 -77 -48 -48 -87 -120 -120 -222 -20 -59 -21 -73 -12 -119
15 -68 50 -112 106 -134 41 -15 58 -16 198 -4 83 7 173 10 198 6 80 -12 164
-60 245 -139 l75 -74 -6 -124 c-7 -125 15 -428 35 -501 24 -82 8 -114 -112
-226 -78 -72 -96 -84 -159 -103 -60 -18 -87 -21 -182 -17 -173 8 -203 23 -362
183 -150 150 -173 188 -233 375 -59 185 -75 276 -70 394 5 121 29 177 114 266
l54 57 0 91 c0 147 -28 232 -77 232 -26 0 -140 -128 -173 -194 -17 -33 -30
-73 -30 -90 0 -17 -12 -67 -27 -111 -27 -78 -28 -85 -27 -320 0 -199 4 -266
23 -395 43 -291 79 -395 196 -569 207 -309 350 -442 550 -511 145 -50 237 -35
411 65 159 92 205 140 284 296 62 121 63 123 78 100 32 -47 362 -279 464 -326
74 -34 308 -101 417 -120 106 -19 226 -19 316 0 133 27 367 167 444 264 39 49
97 182 116 266 8 38 12 110 11 196 l-2 136 -79 198 c-88 223 -213 452 -325
600 -38 50 -133 159 -212 244 -79 85 -170 185 -202 222 -67 78 -202 169 -303
206 -79 29 -162 30 -220 4z"/>
</g>
</svg>
